<svg width="22" height="30" viewBox="0 0 22 30" fill="none" xmlns="http://www.w3.org/2000/svg">
<path d="M11 0C4.92253 0 1.53315e-05 4.78488 1.53315e-05 10.6865C-0.00395392 12.9915 0.76289 15.2354 2.18511 17.0804L9.24085 28.9533C9.2818 29.0299 9.32276 29.1061 9.37308 29.1762L9.38868 29.2023L9.39297 29.2C9.57658 29.4488 9.81881 29.6512 10.0994 29.7903C10.38 29.9295 10.6908 30.0014 11.0059 30C11.6128 30 12.1417 29.7317 12.5056 29.3183L12.524 29.3285L12.5938 29.211C12.6967 29.0761 12.788 28.9321 12.8539 28.7734L19.7665 17.1406C21.2188 15.2851 22.0035 13.0175 22 10.6865C22 4.78488 17.0775 0 11 0ZM10.8912 16.1042C7.89671 16.1042 5.47134 13.7468 5.47134 10.8388C5.47134 7.93085 7.89671 5.57346 10.8912 5.57346C13.8856 5.57346 16.311 7.93123 16.311 10.8388C16.311 13.7465 13.8856 16.1042 10.8912 16.1042Z" fill="#DD4E3B"/>
</svg>
